
        <svg xmlns="http://www.w3.org/2000/svg" viewBox="0 0 800 600" width="100%" height="100%">
            <rect width="100%" height="100%" fill="#f8f9fa"/>
            <g transform="translate(100,100)">
                <rect x="0" y="0" width="200" height="300" fill="#4e73df" rx="10" ry="10"/>
                <rect x="220" y="50" width="200" height="300" fill="#1cc88a" rx="10" ry="10"/>
                <rect x="440" y="100" width="200" height="300" fill="#f6c23e" rx="10" ry="10"/>
                <text x="100" y="150" font-family="Arial" font-size="24" text-anchor="middle" fill="white">PRÊT</text>
                <text x="320" y="200" font-family="Arial" font-size="24" text-anchor="middle" fill="white">ÉCHANGE</text>
                <text x="540" y="250" font-family="Arial" font-size="24" text-anchor="middle" fill="white">VENTE</text>
                <g transform="translate(100, 200)">
                    <path d="M-50,-50 L50,-50 L50,50 L-50,50 Z" fill="white" opacity="0.3"/>
                </g>
                <g transform="translate(320, 250)">
                    <path d="M-50,-50 L50,-50 L50,50 L-50,50 Z" fill="white" opacity="0.3"/>
                </g>
                <g transform="translate(540, 300)">
                    <path d="M-50,-50 L50,-50 L50,50 L-50,50 Z" fill="white" opacity="0.3"/>
                </g>
            </g>
        </svg>
        